<mxfile host="app.diagrams.net" modified="2023-07-25T10:44:34.243Z" agent="Mozilla/5.0 (Windows NT 10.0; Win64; x64) AppleWebKit/537.36 (KHTML, like Gecko) Chrome/114.0.0.0 Safari/537.36" etag="CZIlaqCT-3_0ap6XoebK" version="21.6.5" type="device">
  <diagram name="페이지-1" id="DMKuwa0YpSr04OW5ee-I">
    <mxGraphModel dx="1434" dy="756" grid="1" gridSize="10" guides="1" tooltips="1" connect="1" arrows="1" fold="1" page="1" pageScale="1" pageWidth="827" pageHeight="1169" math="0" shadow="0">
      <root>
        <mxCell id="0" />
        <mxCell id="1" parent="0" />
        <mxCell id="E_m02j8qiIaqm9t8874m-1" value="관리자" style="whiteSpace=wrap;html=1;align=center;" parent="1" vertex="1">
          <mxGeometry x="130" y="280" width="100" height="40" as="geometry" />
        </mxCell>
        <mxCell id="E_m02j8qiIaqm9t8874m-2" value="Smart-bin" style="whiteSpace=wrap;html=1;align=center;" parent="1" vertex="1">
          <mxGeometry x="580" y="280" width="100" height="40" as="geometry" />
        </mxCell>
        <mxCell id="E_m02j8qiIaqm9t8874m-5" value="관리자번호" style="ellipse;whiteSpace=wrap;html=1;align=center;" parent="1" vertex="1">
          <mxGeometry x="110" y="360" width="100" height="40" as="geometry" />
        </mxCell>
        <mxCell id="E_m02j8qiIaqm9t8874m-6" value="위치" style="ellipse;whiteSpace=wrap;html=1;align=center;" parent="1" vertex="1">
          <mxGeometry x="720" y="330" width="100" height="40" as="geometry" />
        </mxCell>
        <mxCell id="E_m02j8qiIaqm9t8874m-7" value="Bin번호(PK)" style="ellipse;whiteSpace=wrap;html=1;align=center;" parent="1" vertex="1">
          <mxGeometry x="700" y="190" width="100" height="40" as="geometry" />
        </mxCell>
        <mxCell id="E_m02j8qiIaqm9t8874m-8" value="배터리용량" style="ellipse;whiteSpace=wrap;html=1;align=center;" parent="1" vertex="1">
          <mxGeometry x="550" y="160" width="100" height="40" as="geometry" />
        </mxCell>
        <mxCell id="E_m02j8qiIaqm9t8874m-9" value="용량" style="ellipse;whiteSpace=wrap;html=1;align=center;" parent="1" vertex="1">
          <mxGeometry x="600" y="370" width="100" height="40" as="geometry" />
        </mxCell>
        <mxCell id="E_m02j8qiIaqm9t8874m-12" value="" style="endArrow=none;html=1;rounded=0;" parent="1" source="E_m02j8qiIaqm9t8874m-2" target="E_m02j8qiIaqm9t8874m-9" edge="1">
          <mxGeometry width="50" height="50" relative="1" as="geometry">
            <mxPoint x="390" y="410" as="sourcePoint" />
            <mxPoint x="440" y="360" as="targetPoint" />
          </mxGeometry>
        </mxCell>
        <mxCell id="E_m02j8qiIaqm9t8874m-13" value="" style="endArrow=none;html=1;rounded=0;" parent="1" source="E_m02j8qiIaqm9t8874m-2" target="E_m02j8qiIaqm9t8874m-8" edge="1">
          <mxGeometry width="50" height="50" relative="1" as="geometry">
            <mxPoint x="390" y="410" as="sourcePoint" />
            <mxPoint x="440" y="360" as="targetPoint" />
          </mxGeometry>
        </mxCell>
        <mxCell id="E_m02j8qiIaqm9t8874m-14" value="" style="endArrow=none;html=1;rounded=0;" parent="1" source="E_m02j8qiIaqm9t8874m-2" target="E_m02j8qiIaqm9t8874m-7" edge="1">
          <mxGeometry width="50" height="50" relative="1" as="geometry">
            <mxPoint x="390" y="410" as="sourcePoint" />
            <mxPoint x="440" y="360" as="targetPoint" />
          </mxGeometry>
        </mxCell>
        <mxCell id="E_m02j8qiIaqm9t8874m-15" value="" style="endArrow=none;html=1;rounded=0;" parent="1" source="E_m02j8qiIaqm9t8874m-2" target="E_m02j8qiIaqm9t8874m-6" edge="1">
          <mxGeometry width="50" height="50" relative="1" as="geometry">
            <mxPoint x="390" y="410" as="sourcePoint" />
            <mxPoint x="440" y="360" as="targetPoint" />
          </mxGeometry>
        </mxCell>
        <mxCell id="E_m02j8qiIaqm9t8874m-18" value="관리자이름" style="ellipse;whiteSpace=wrap;html=1;align=center;" parent="1" vertex="1">
          <mxGeometry x="80" y="180" width="100" height="40" as="geometry" />
        </mxCell>
        <mxCell id="E_m02j8qiIaqm9t8874m-20" value="" style="endArrow=none;html=1;rounded=0;" parent="1" source="E_m02j8qiIaqm9t8874m-1" target="E_m02j8qiIaqm9t8874m-18" edge="1">
          <mxGeometry width="50" height="50" relative="1" as="geometry">
            <mxPoint x="390" y="410" as="sourcePoint" />
            <mxPoint x="440" y="360" as="targetPoint" />
          </mxGeometry>
        </mxCell>
        <mxCell id="E_m02j8qiIaqm9t8874m-21" value="" style="endArrow=none;html=1;rounded=0;exitX=0.5;exitY=0;exitDx=0;exitDy=0;" parent="1" source="E_m02j8qiIaqm9t8874m-5" target="E_m02j8qiIaqm9t8874m-1" edge="1">
          <mxGeometry width="50" height="50" relative="1" as="geometry">
            <mxPoint x="390" y="410" as="sourcePoint" />
            <mxPoint x="440" y="360" as="targetPoint" />
          </mxGeometry>
        </mxCell>
        <mxCell id="E_m02j8qiIaqm9t8874m-32" value="구역" style="whiteSpace=wrap;html=1;align=center;" parent="1" vertex="1">
          <mxGeometry x="350" y="280" width="100" height="40" as="geometry" />
        </mxCell>
        <mxCell id="E_m02j8qiIaqm9t8874m-33" value="구역번호(PK)" style="ellipse;whiteSpace=wrap;html=1;align=center;" parent="1" vertex="1">
          <mxGeometry x="320" y="390" width="100" height="40" as="geometry" />
        </mxCell>
        <mxCell id="E_m02j8qiIaqm9t8874m-34" value="배치정보" style="ellipse;whiteSpace=wrap;html=1;align=center;" parent="1" vertex="1">
          <mxGeometry x="440" y="390" width="100" height="40" as="geometry" />
        </mxCell>
        <mxCell id="E_m02j8qiIaqm9t8874m-36" value="" style="endArrow=none;html=1;rounded=0;" parent="1" source="E_m02j8qiIaqm9t8874m-32" target="E_m02j8qiIaqm9t8874m-2" edge="1">
          <mxGeometry width="50" height="50" relative="1" as="geometry">
            <mxPoint x="390" y="410" as="sourcePoint" />
            <mxPoint x="440" y="360" as="targetPoint" />
          </mxGeometry>
        </mxCell>
        <mxCell id="E_m02j8qiIaqm9t8874m-37" value="" style="endArrow=none;html=1;rounded=0;exitX=0;exitY=0.5;exitDx=0;exitDy=0;" parent="1" source="E_m02j8qiIaqm9t8874m-32" target="E_m02j8qiIaqm9t8874m-1" edge="1">
          <mxGeometry width="50" height="50" relative="1" as="geometry">
            <mxPoint x="390" y="410" as="sourcePoint" />
            <mxPoint x="440" y="360" as="targetPoint" />
          </mxGeometry>
        </mxCell>
        <mxCell id="E_m02j8qiIaqm9t8874m-38" value="" style="endArrow=none;html=1;rounded=0;" parent="1" source="E_m02j8qiIaqm9t8874m-33" target="E_m02j8qiIaqm9t8874m-32" edge="1">
          <mxGeometry width="50" height="50" relative="1" as="geometry">
            <mxPoint x="360" y="230" as="sourcePoint" />
            <mxPoint x="410" y="180" as="targetPoint" />
          </mxGeometry>
        </mxCell>
        <mxCell id="E_m02j8qiIaqm9t8874m-39" value="" style="endArrow=none;html=1;rounded=0;" parent="1" source="E_m02j8qiIaqm9t8874m-34" target="E_m02j8qiIaqm9t8874m-32" edge="1">
          <mxGeometry width="50" height="50" relative="1" as="geometry">
            <mxPoint x="360" y="230" as="sourcePoint" />
            <mxPoint x="410" y="180" as="targetPoint" />
          </mxGeometry>
        </mxCell>
        <mxCell id="JQZYg1e0i8T4BrEuYOOY-4" value="관리자ID(PK)" style="ellipse;whiteSpace=wrap;html=1;align=center;" vertex="1" parent="1">
          <mxGeometry x="10" y="250" width="100" height="40" as="geometry" />
        </mxCell>
        <mxCell id="JQZYg1e0i8T4BrEuYOOY-5" value="" style="endArrow=none;html=1;rounded=0;entryX=0;entryY=0.5;entryDx=0;entryDy=0;" edge="1" parent="1" source="JQZYg1e0i8T4BrEuYOOY-4" target="E_m02j8qiIaqm9t8874m-1">
          <mxGeometry width="50" height="50" relative="1" as="geometry">
            <mxPoint x="620" y="410" as="sourcePoint" />
            <mxPoint x="670" y="360" as="targetPoint" />
          </mxGeometry>
        </mxCell>
      </root>
    </mxGraphModel>
  </diagram>
</mxfile>
